<?xml version="1.0" encoding="utf-8"?><svg viewBox="0 0 30 30" xmlns="http://www.w3.org/2000/svg" xmlns:xlink="http://www.w3.org/1999/xlink"><style>:root>svg{display:none}:root>svg:target{display:block}</style><svg viewBox="0 0 10 6" id="arr-down_tr" xmlns="http://www.w3.org/2000/svg"><path d="M5.71 5.714a.961.961 0 00.13-.164l3.876-3.876a.969.969 0 00-1.37-1.37L5.01 3.643 1.653.288a.968.968 0 10-1.37 1.369L4.178 5.55a.96.96 0 00.832.446.962.962 0 00.701-.282z" fill="inherit"/></svg><svg viewBox="0 0 6 10" id="arr-left_tr" xmlns="http://www.w3.org/2000/svg"><path d="M5.714 4.29a.961.961 0 00-.164-.13L1.674.282a.969.969 0 00-1.37 1.37l3.339 3.338L.288 8.347a.968.968 0 101.369 1.37L5.55 5.822a.96.96 0 00.446-.832.962.962 0 00-.282-.701z" fill="inherit"/></svg><svg viewBox="0 0 6 10" id="arr-right_tr" xmlns="http://www.w3.org/2000/svg"><path d="M5.714 4.29a.961.961 0 00-.164-.13L1.674.283a.969.969 0 00-1.37 1.37L3.643 4.99.288 8.347a.968.968 0 101.369 1.37L5.55 5.822a.96.96 0 00.446-.832.962.962 0 00-.282-.701z" fill="inherit"/></svg><svg fill="none" viewBox="0 0 14 14" id="availability_no" xmlns="http://www.w3.org/2000/svg"><circle cx="7" cy="7" r="7" fill="#D23235"/><path d="M3.39 11a.39.39 0 01-.276-.667l7.219-7.219a.39.39 0 01.553.553l-7.22 7.219a.391.391 0 01-.275.114z" fill="#fff"/><path d="M10.61 11a.39.39 0 01-.277-.114l-7.219-7.22a.39.39 0 01.553-.552l7.219 7.22a.391.391 0 01-.277.666z" fill="#fff"/></svg><svg fill="none" viewBox="0 0 14 14" id="availability_yes" xmlns="http://www.w3.org/2000/svg"><path d="M7 0C3.14 0 0 3.14 0 7s3.14 7 7 7 7-3.14 7-7-3.14-7-7-7zm3.912 5.158L6.44 9.596a.688.688 0 01-.965.018L3.105 7.456a.712.712 0 01-.052-.982.694.694 0 01.982-.035l1.877 1.719 4-4c.281-.28.72-.28 1 0 .281.28.281.72 0 1z" fill="#72A858"/></svg><svg viewBox="0 0 16 16" id="clock" xmlns="http://www.w3.org/2000/svg"><path d="M8 16c4.417 0 8-3.583 8-8s-3.583-8-8-8-8 3.583-8 8 3.583 8 8 8zM7.429 3.429c0-.315.257-.572.571-.572.314 0 .571.257.571.572v4.297l2.643 2.114a.572.572 0 01-.714.891L7.643 8.446A.573.573 0 017.429 8V3.429z" fill="inherit"/></svg><svg viewBox="0 0 30 30" id="loupe" xmlns="http://www.w3.org/2000/svg"><g clip-path="url(#gclip0_2_220)" fill="inherit"><path d="M13.211 0C5.927 0 0 5.927 0 13.211c0 7.285 5.927 13.212 13.211 13.212 7.285 0 13.212-5.927 13.212-13.212C26.423 5.927 20.496 0 13.21 0zm0 23.984c-5.94 0-10.772-4.833-10.772-10.773 0-5.94 4.833-10.772 10.772-10.772 5.94 0 10.773 4.833 10.773 10.772 0 5.94-4.833 10.773-10.773 10.773z"/><path d="M29.643 27.918l-6.992-6.992a1.219 1.219 0 10-1.725 1.725l6.992 6.992a1.215 1.215 0 001.725 0 1.219 1.219 0 000-1.725z"/></g><defs><clipPath id="gclip0_2_220"><path fill="#fff" d="M0 0h30v30H0z"/></clipPath></defs></svg><svg viewBox="0 0 30 22" id="mail" xmlns="http://www.w3.org/2000/svg"><path d="M29.736 1.96L20.637 11l9.099 9.04c.164-.344.264-.724.264-1.13V3.09c0-.406-.1-.786-.264-1.13zM27.363.453H2.637c-.406 0-.786.1-1.13.264l11.629 11.57a2.639 2.639 0 003.728 0L28.493.717a2.606 2.606 0 00-1.13-.264zM.264 1.96A2.606 2.606 0 000 3.09v15.82c0 .406.1.786.264 1.13L9.363 11 .264 1.96z" fill="inherit"/><path d="M19.395 12.243l-1.288 1.287a4.4 4.4 0 01-6.214 0l-1.288-1.287-9.098 9.04c.344.164.724.264 1.13.264h24.726c.406 0 .786-.1 1.13-.264l-9.098-9.04z" fill="inherit"/></svg><svg viewBox="0 0 16 16" id="phone" xmlns="http://www.w3.org/2000/svg"><path d="M13.656 2.342A8 8 0 102.344 13.657 8 8 0 0013.656 2.342zm-1.54 8.802h-.002v-.002l-.405.403c-.524.53-1.288.749-2.013.576a7.09 7.09 0 01-2.059-.923 9.512 9.512 0 01-1.624-1.31A9.585 9.585 0 014.8 8.418a7.466 7.466 0 01-.912-1.846 2.133 2.133 0 01.533-2.178l.475-.475a.339.339 0 01.479-.001v.001l1.5 1.499a.339.339 0 010 .48l-.88.88a.717.717 0 00-.075.933c.318.437.67.848 1.053 1.23.427.428.89.818 1.387 1.165.286.2.674.166.922-.08l.85-.864a.339.339 0 01.48-.001l1.502 1.505a.339.339 0 01.001.479z" fill="inherit"/></svg><svg viewBox="0 0 30 28" id="shopping-cart" xmlns="http://www.w3.org/2000/svg"><g clip-path="url(#jclip0_2_186)" fill="inherit"><path d="M9.727 18.395h15.879c.393 0 .738-.26.844-.638l3.516-12.305a.878.878 0 00-.845-1.12H7.698l-.629-2.827a.879.879 0 00-.858-.689H.879a.879.879 0 100 1.758h4.627l3.173 14.282a2.639 2.639 0 00-1.59 2.418 2.64 2.64 0 002.638 2.636h15.879a.878.878 0 100-1.757H9.726a.88.88 0 010-1.758zM8.848 24.547a2.64 2.64 0 002.637 2.637 2.64 2.64 0 002.636-2.637 2.64 2.64 0 00-2.636-2.637 2.64 2.64 0 00-2.637 2.637zM21.211 24.547a2.64 2.64 0 002.637 2.637 2.64 2.64 0 002.637-2.637 2.64 2.64 0 00-2.637-2.637 2.64 2.64 0 00-2.637 2.637z"/></g><defs><clipPath id="jclip0_2_186"><path fill="#fff" d="M0 0h30v28H0z"/></clipPath></defs></svg></svg>