<svg width="6" height="10" viewBox="0 0 6 10" xmlns="http://www.w3.org/2000/svg">
<path d="M5.71368 4.28971C5.66346 4.23913 5.60786 4.19644 5.5501 4.15931L1.67419 0.283579C1.2959 -0.0943445 0.68283 -0.0945239 0.304369 0.283759C-0.0739136 0.661862 -0.0739136 1.27511 0.304369 1.65357L3.64254 4.99139L0.287508 8.34679C-0.0909533 8.72471 -0.0909533 9.33814 0.287508 9.7166C0.476739 9.90548 0.724443 10 0.972147 10C1.21985 10 1.46809 9.90548 1.65679 9.71624L5.5501 5.82347C5.60786 5.78634 5.66328 5.74383 5.71368 5.69307C5.9074 5.49936 6.00031 5.24502 5.996 4.99139C6.00049 4.73759 5.9074 4.48289 5.71368 4.28971Z" fill="inherit"/>
</svg>
