<svg width="6" height="10" viewBox="0 0 6 10" xmlns="http://www.w3.org/2000/svg">
<path d="M5.7138 4.28962C5.66358 4.23904 5.60798 4.19635 5.55022 4.15922L1.67431 0.283488C1.29602 -0.0944361 0.682953 -0.0946154 0.304491 0.283667C-0.0737915 0.66177 -0.0737915 1.27502 0.304491 1.65348L3.64267 4.9913L0.28763 8.3467C-0.0908312 8.72462 -0.0908312 9.33805 0.28763 9.71651C0.476861 9.90538 0.724565 9.99991 0.972269 9.99991C1.21997 9.99991 1.46822 9.90538 1.65691 9.71615L5.55022 5.82338C5.60798 5.78625 5.6634 5.74374 5.7138 5.69298C5.90752 5.49926 6.00043 5.24492 5.99613 4.9913C6.00061 4.7375 5.90752 4.4828 5.7138 4.28962Z" fill="inherit"/>
</svg>
