<svg width="10" height="6" viewBox="0 0 10 6" xmlns="http://www.w3.org/2000/svg">
<path d="M5.71029 5.7138C5.76087 5.66358 5.80356 5.60798 5.84069 5.55022L9.71642 1.67431C10.0943 1.29602 10.0945 0.682953 9.71624 0.304491C9.33814 -0.0737915 8.72489 -0.0737915 8.34643 0.304491L5.00861 3.64267L1.65321 0.28763C1.27529 -0.0908312 0.661858 -0.0908312 0.283397 0.28763C0.0945244 0.476861 -9.53674e-07 0.724565 -9.53674e-07 0.972269C-9.53674e-07 1.21997 0.0945244 1.46822 0.283755 1.65691L4.17653 5.55022C4.21366 5.60798 4.25617 5.6634 4.30693 5.7138C4.50064 5.90752 4.75498 6.00043 5.00861 5.99613C5.26241 6.00061 5.51711 5.90752 5.71029 5.7138Z" fill="inherit"/>
</svg>
