<svg width="14" height="14" viewBox="0 0 14 14" fill="none" xmlns="http://www.w3.org/2000/svg">
<circle cx="7" cy="7" r="7" fill="#D23235"/>
<path d="M3.39069 11C3.31342 11 3.23789 10.9771 3.17364 10.9342C3.10939 10.8913 3.05931 10.8303 3.02974 10.7589C3.00017 10.6875 2.99243 10.6089 3.00751 10.5332C3.02259 10.4574 3.0598 10.3878 3.11445 10.3331L10.333 3.11443C10.4063 3.04116 10.5057 3 10.6093 3C10.7129 3 10.8123 3.04116 10.8855 3.11443C10.9588 3.18769 10.9999 3.28706 10.9999 3.39067C10.9999 3.49429 10.9588 3.59366 10.8855 3.66692L3.66693 10.8856C3.63069 10.9219 3.58763 10.9507 3.54022 10.9704C3.49282 10.99 3.442 11.0001 3.39069 11Z" fill="white"/>
<path d="M10.6093 11C10.558 11.0001 10.5072 10.99 10.4598 10.9704C10.4124 10.9507 10.3693 10.9219 10.3331 10.8856L3.11448 3.66692C3.04122 3.59366 3.00006 3.49429 3.00006 3.39067C3.00006 3.28706 3.04122 3.18769 3.11448 3.11443C3.18775 3.04116 3.28712 3 3.39073 3C3.49434 3 3.59371 3.04116 3.66697 3.11443L10.8856 10.3331C10.9402 10.3878 10.9774 10.4574 10.9925 10.5332C11.0076 10.6089 10.9998 10.6875 10.9703 10.7589C10.9407 10.8303 10.8906 10.8913 10.8264 10.9342C10.7621 10.9771 10.6866 11 10.6093 11V11Z" fill="white"/>
</svg>
