<svg width="30" height="22" viewBox="0 0 30 22" xmlns="http://www.w3.org/2000/svg">
<path d="M29.7358 1.96021L20.6374 11L29.7358 20.0398C29.9002 19.696 30 19.316 30 18.9101V3.08983C30 2.68396 29.9002 2.30397 29.7358 1.96021Z" fill="inherit"/>
<path d="M27.3633 0.453125H2.63671C2.23083 0.453125 1.85085 0.55291 1.50708 0.717383L13.1358 12.2875C14.164 13.3157 15.836 13.3157 16.8642 12.2875L28.4929 0.717383C28.1491 0.55291 27.7691 0.453125 27.3633 0.453125Z" fill="inherit"/>
<path d="M0.264258 1.96021C0.0997852 2.30397 0 2.68396 0 3.08983V18.9101C0 19.316 0.0997852 19.6961 0.264258 20.0398L9.36264 11L0.264258 1.96021Z" fill="inherit"/>
<path d="M19.3945 12.2428L18.107 13.5303C16.3938 15.2435 13.6061 15.2435 11.8929 13.5303L10.6055 12.2428L1.50708 21.2826C1.85085 21.4471 2.23083 21.5469 2.63671 21.5469H27.3633C27.7691 21.5469 28.1491 21.4471 28.4929 21.2826L19.3945 12.2428Z" fill="inherit"/>
</svg>
