<svg width="16" height="16" viewBox="0 0 16 16" xmlns="http://www.w3.org/2000/svg">
<path d="M13.6556 2.34193C10.531 -0.781792 5.46565 -0.781042 2.34193 2.34365C-0.781792 5.46833 -0.781042 10.5336 2.34365 13.6574C5.46833 16.7811 10.5336 16.7803 13.6574 13.6556C15.1576 12.155 16.0001 10.1198 15.9996 7.99793C15.9992 5.87636 15.1561 3.84186 13.6556 2.34193ZM12.1154 11.1436C12.115 11.1439 12.1147 11.1443 12.1143 11.1446V11.142L11.709 11.5446C11.1847 12.0755 10.4213 12.2939 9.69561 12.1206C8.96452 11.9249 8.26952 11.6134 7.63696 11.198C7.04927 10.8224 6.50465 10.3833 6.01296 9.88861C5.56055 9.43952 5.15412 8.94639 4.79961 8.41661C4.41186 7.84655 4.10496 7.22555 3.88761 6.57127C3.63846 5.80265 3.84493 4.95924 4.42096 4.39261L4.89562 3.91796C5.02758 3.7854 5.24202 3.78493 5.37455 3.9169C5.3749 3.91724 5.37527 3.91758 5.37562 3.91796L6.87427 5.41661C7.00683 5.54858 7.0073 5.76302 6.87533 5.89555C6.87499 5.8959 6.87465 5.89624 6.87427 5.89661L5.99427 6.77661C5.74177 7.02636 5.71002 7.42324 5.91961 7.70996C6.2379 8.14677 6.59012 8.5578 6.97296 8.9393C7.3998 9.36799 7.86383 9.75796 8.35962 10.1046C8.64608 10.3045 9.03446 10.2708 9.28227 10.0246L10.1329 9.16065C10.2649 9.02808 10.4793 9.02761 10.6119 9.15958C10.6122 9.15993 10.6126 9.16027 10.6129 9.16065L12.1143 10.6646C12.2469 10.7966 12.2473 11.011 12.1154 11.1436Z" fill="inherit"/>
</svg>
