<svg width="30" height="28" viewBox="0 0 30 28" xmlns="http://www.w3.org/2000/svg">
<g clip-path="url(#clip0_2_186)">
<path d="M9.72656 18.3948H25.6057C25.9989 18.3948 26.3438 18.1348 26.4503 17.7571L29.9661 5.45218C30.0417 5.1869 29.9899 4.90195 29.8235 4.68153C29.6569 4.46181 29.3978 4.33203 29.1213 4.33203H7.69753L7.06924 1.50488C6.97998 1.10228 6.62292 0.816406 6.21094 0.816406H0.878906C0.393219 0.816406 0 1.20963 0 1.69531C0 2.18123 0.393219 2.57422 0.878906 2.57422H5.50552L8.67943 16.8564C7.74559 17.2625 7.08984 18.192 7.08984 19.2737C7.08984 20.7275 8.27271 21.9104 9.72656 21.9104H25.6057C26.0916 21.9104 26.4846 21.5174 26.4846 21.0315C26.4846 20.5458 26.0916 20.1526 25.6057 20.1526H9.72656C9.24248 20.1526 8.84766 19.7587 8.84766 19.2737C8.84766 18.7887 9.24248 18.3948 9.72656 18.3948Z" fill="inherit"/>
<path d="M8.84766 24.5471C8.84766 26.0012 10.0305 27.1838 11.4846 27.1838C12.9385 27.1838 14.1213 26.0012 14.1213 24.5471C14.1213 23.0932 12.9385 21.9104 11.4846 21.9104C10.0305 21.9104 8.84766 23.0932 8.84766 24.5471Z" fill="inherit"/>
<path d="M21.2112 24.5471C21.2112 26.0012 22.394 27.1838 23.8479 27.1838C25.302 27.1838 26.4846 26.0012 26.4846 24.5471C26.4846 23.0932 25.302 21.9104 23.8479 21.9104C22.394 21.9104 21.2112 23.0932 21.2112 24.5471Z" fill="inherit"/>
</g>
<defs>
<clipPath id="clip0_2_186">
<rect width="30.0001" height="28" fill="white"/>
</clipPath>
</defs>
</svg>
