<svg width="91" height="95" viewBox="0 0 91 95" fill="none" xmlns="http://www.w3.org/2000/svg">
<path d="M9.48074 94.8474L8.87153 92.9024H4.72132L4.15019 94.8474H0.380737L4.83555 83.0249H8.83346L13.2883 94.8474H9.48074ZM6.81547 86.0759L5.52091 90.3091H8.11003L6.81547 86.0759ZM22.9594 88.5548C23.7971 88.7455 24.4443 89.1268 24.8251 89.6226C25.2439 90.1184 25.4343 90.7286 25.4343 91.4914C25.4343 92.1016 25.282 92.6736 25.0155 93.1313C24.7109 93.627 24.3301 94.0084 23.8351 94.2754C23.5305 94.4661 23.0736 94.5805 22.4263 94.6567C21.5887 94.7712 21.0556 94.8093 20.7891 94.8093H14.4686V82.9868H21.3222C22.4644 82.9868 23.3402 83.2537 23.9494 83.8258C24.5586 84.3978 24.8632 85.0843 24.8632 85.9233C24.8632 86.6098 24.6347 87.22 24.2159 87.7158C23.9494 88.0971 23.5305 88.3641 22.9594 88.5548ZM20.9795 85.6945C20.751 85.5038 20.3703 85.3894 19.7991 85.3894H18.1619V87.6395H19.7611C20.3322 87.6395 20.713 87.5251 20.9414 87.3344C21.1699 87.1437 21.2841 86.8386 21.2841 86.4954C21.3222 86.1521 21.2079 85.8852 20.9795 85.6945ZM21.3983 90.2328C21.1318 90.004 20.6749 89.9277 20.0657 89.9277H18.2V92.3304H20.0657C20.713 92.3304 21.1318 92.216 21.3983 91.9871C21.6648 91.7583 21.7791 91.4532 21.7791 91.0718C21.7791 90.7286 21.6648 90.4235 21.3983 90.2328ZM33.9632 85.9233V94.8474H30.3079V85.9233H26.5766V82.9868H37.6945V85.9233H33.9632Z" fill="#696969"/>
<path d="M56.9607 87.5251H58.9025C60.692 87.5251 62.0247 87.8683 62.9004 88.5167C63.7761 89.165 64.195 90.1947 64.195 91.5677C64.195 92.6736 63.8142 93.5508 63.0146 94.161C62.215 94.7712 61.0728 95.0381 59.5878 95.0381H53.3054V82.8724H63.2812V85.3513H56.9607V87.5251ZM56.9607 92.4067H58.8263C59.9686 92.4067 60.5397 91.9872 60.5397 91.1481C60.5397 90.3854 59.9686 90.0422 58.8263 90.0422H56.9607V92.4067ZM74.0184 95V88.326L69.6017 95H66.1368V82.8342H69.6017V89.5464L74.0565 82.8342H77.4832V95H74.0184ZM87.3067 86.3428C87.1163 86.0377 86.8498 85.8471 86.5452 85.6945C86.2406 85.542 85.936 85.4657 85.5552 85.4657C84.7176 85.4657 84.1084 85.8089 83.6514 86.4954C83.3088 86.9912 83.1565 87.7921 83.1565 88.898C83.1565 90.2329 83.3468 91.1863 83.7657 91.6821C84.1464 92.1778 84.7176 92.4448 85.441 92.4448C86.1263 92.4448 86.6594 92.2541 87.0402 91.8346C87.3828 91.4151 87.6494 90.843 87.8017 90.0803L91 91.0719C90.7715 91.9872 90.4289 92.7499 89.972 93.3982C89.515 94.0084 88.9439 94.4661 88.2586 94.8093C87.5732 95.1144 86.6975 95.267 85.6314 95.267C84.3368 95.267 83.3088 95.0763 82.4711 94.6949C81.6715 94.3135 80.9481 93.6271 80.377 92.6736C79.7678 91.7202 79.5012 90.4617 79.5012 88.9743C79.5012 86.953 80.0343 85.4276 81.0623 84.3216C82.0904 83.2537 83.5753 82.6817 85.4791 82.6817C86.964 82.6817 88.1443 82.9868 88.982 83.597C89.8196 84.2072 90.4669 85.1606 90.8858 86.4573L87.6494 87.1819C87.5351 86.8005 87.4209 86.4954 87.3067 86.3428Z" fill="#696969"/>
<path fill-rule="evenodd" clip-rule="evenodd" d="M45.0812 94.8093C41.8448 94.8093 39.2556 92.1778 39.2556 88.9743C39.2556 85.7326 41.8828 83.1393 45.0812 83.1393C48.3176 83.1393 50.9067 85.7708 50.9067 88.9743C50.9067 92.1778 48.3176 94.8093 45.0812 94.8093ZM45.0812 86.8386C43.9008 86.8386 42.987 87.7921 42.987 88.9362C42.987 90.1184 43.9389 91.0337 45.0812 91.0337C46.2615 91.0337 47.1753 90.0803 47.1753 88.9362C47.2134 87.7921 46.2615 86.8386 45.0812 86.8386Z" fill="#696969"/>
<path fill-rule="evenodd" clip-rule="evenodd" d="M88.1063 76.1602L22.0075 76.122L32.7447 56.2525C30.7268 47.7098 34.6485 38.0992 40.8548 34.0566C46.1853 30.5861 53.2293 29.4801 61.6058 32.2641C59.4736 27.4589 46.2996 6.21638 46.2996 6.21638L8.75729 75.5118H5.33051L46.1853 0L69.4494 39.4721C69.4494 39.4721 68.0025 40.4637 67.0506 40.9976C61.7201 32.6837 48.1272 32.5311 42.1493 37.222C38.4941 40.0823 35.4862 45.5741 35.4862 51.2947L37.4661 47.6335C38.8368 40.8069 44.8146 35.6965 52.0489 35.6965C60.2732 35.6965 66.8983 42.3705 66.8983 50.5701C66.8983 58.8077 60.2351 65.4436 52.0489 65.4436C44.9288 65.4436 39.0272 60.4476 37.5422 53.7736L36.2477 56.1762C37.5042 59.9137 40.3598 63.4605 45.5381 66.0919C51.3636 69.0285 61.0728 66.664 66.1368 61.2104C67.241 61.935 67.736 62.3926 68.3452 63.1935C59.7021 72.3083 48.3556 71.0879 43.6343 68.9141C38.9891 66.7784 35.9431 63.6511 34.1916 60.1044L27.2619 73.2236H86.8498L88.1063 76.1602ZM51.9728 62.3545C58.4837 62.3545 63.7761 57.0534 63.7761 50.5319C63.7761 44.0104 58.4837 38.7094 51.9728 38.7094C45.4619 38.7094 40.1694 44.0104 40.1694 50.5319C40.1694 57.0915 45.4619 62.3545 51.9728 62.3545ZM51.9728 49.2734C52.6962 49.2734 53.2673 49.8454 53.2673 50.5701C53.2673 51.2947 52.6962 51.8667 51.9728 51.8667C51.2494 51.8667 50.6782 51.2947 50.6782 50.5701C50.6782 49.8454 51.2874 49.2734 51.9728 49.2734Z" fill="#D23235"/>
<path d="M52.8866 48.0148C50.6402 48.0148 43.2916 47.9386 43.2916 47.9386C43.2916 47.9386 46.528 39.9297 53.3054 41.3408C57.9506 42.2942 57.4937 48.0148 52.8866 48.0148ZM43.8628 55.2609C42.0351 50.8751 47.023 48.053 49.6121 51.8286C50.8686 53.6973 54.9427 59.7993 54.9427 59.7993C54.9427 59.7993 46.528 61.668 43.8628 55.2609ZM59.9305 56.5576C56.618 59.9899 52.0489 56.5195 54.5238 52.6295C55.7042 50.7226 59.7021 44.5443 59.7021 44.5443C59.7021 44.5443 64.728 51.5997 59.9305 56.5576Z" fill="#D23235"/>
</svg>
